<svg id="Capa_1" data-name="Capa 1" xmlns="http://www.w3.org/2000/svg" viewBox="0 0 175.48 71.31"><defs><style>.cls-1{fill:none;stroke:#1d1d1b;}</style></defs><title>catch</title><path class="cls-1" d="M18.3,61.85Q19.37,53,20,48.24c.41-3.18.71-5.53.88-7.06q.36-2.66.36-3.09.8-2.75,1.68-5.92a28.31,28.31,0,0,1,2.34-5.92A14.66,14.66,0,0,1,29,21.66a9.1,9.1,0,0,1,5.92-1.86,17.82,17.82,0,0,1,2.87.22,10.08,10.08,0,0,1,2.43.75,17,17,0,0,1,2.25,1.28,26.9,26.9,0,0,1,2.34,1.82,12.28,12.28,0,0,1,1,1A2.36,2.36,0,0,1,46,25.9a3.66,3.66,0,0,1-.8,2.21,2.7,2.7,0,0,1-2.29,1.06,3.39,3.39,0,0,1-2-.58,12.48,12.48,0,0,1-1.55-1.32,11,11,0,0,0-1.59-1.33,3.77,3.77,0,0,0-2.16-.57,4.18,4.18,0,0,0-2.48.75A7,7,0,0,0,31.24,28a9.31,9.31,0,0,0-1.15,2.56,21.52,21.52,0,0,0-.57,2.65L25.37,61.49c0,.12,0,.4-.05.84s0,.79,0,1V64.9a9.74,9.74,0,0,0,.18,1.85,4,4,0,0,0,.62,1.59,1.6,1.6,0,0,0,2.29.31,32.45,32.45,0,0,0,7.29-6.58,89.39,89.39,0,0,0,5.78-8l.49-.83c.27-.45.53-.92.8-1.42s.51-1,.75-1.5.41-.87.53-1.1a11.75,11.75,0,0,0,.79-2.39,17.81,17.81,0,0,1,.66-2.3,4.12,4.12,0,0,1,1.2-1.72,3.82,3.82,0,0,1,2.47-.66,3.47,3.47,0,0,1,2.38,1.06,3.26,3.26,0,0,1,1.15,2.47v.18A54.38,54.38,0,0,1,47,57.61Q43.48,63,39.24,68.3a21.83,21.83,0,0,1-6.1,5.12,15.33,15.33,0,0,1-7.68,1.94H25a9,9,0,0,1-5.35-4.46A16.38,16.38,0,0,1,18.3,64Z" transform="translate(-17.8 -4.64)"/><path class="cls-1" d="M53,69.8a78.18,78.18,0,0,1,.71-10.51c.47-3.48.88-6.95,1.24-10.43,0-.17,0-.57.08-1.19s.14-1.28.22-2,.18-1.37.27-2a10.66,10.66,0,0,0,.13-1.2v-.35l3.71-27.56A5.22,5.22,0,0,1,60,11.45a2.88,2.88,0,0,1,2.78-1.36,5.78,5.78,0,0,1,3.66.57,7.77,7.77,0,0,1,2.43,2.16,12.67,12.67,0,0,1,1.59,2.92,26.37,26.37,0,0,0,1.33,2.91c.29.83.66,1.8,1.1,2.92s1,2.53,1.59,4.24,1.36,3.8,2.21,6.27,1.84,5.48,3,9l.35.35c.41-.23,1.2-.62,2.34-1.15l3.63-1.67,3.57-1.68c1.12-.53,1.92-.89,2.39-1.06a.81.81,0,0,1,.48-.31,4.94,4.94,0,0,0,.58-.22h.17a1.5,1.5,0,0,1,1.33.66,2.35,2.35,0,0,1,.44,1.28A3.14,3.14,0,0,1,94.45,39a7.08,7.08,0,0,1-1,1.28,14.56,14.56,0,0,1-1.23,1.1,4.33,4.33,0,0,0-1,1.15l-8.74,4.42a1.3,1.3,0,0,0-.36.71,5.75,5.75,0,0,0,.75,2.2c.5,1,.9,1.8,1.2,2.39.17.35.47,1,.88,1.94s.85,1.92,1.32,2.92.93,2,1.37,2.87l.93,1.9v.26q0,3.18-3.18,3.18a9.76,9.76,0,0,1-2-.22,2.2,2.2,0,0,1-1.59-1.28L75.81,51.16H75q-3.36,2.56-7.16,5a54.63,54.63,0,0,1-7.77,4.24,43.49,43.49,0,0,0-.75,6.45q-.14,3.27,0,6.54A6.18,6.18,0,0,1,58,74.88a3.42,3.42,0,0,1-1.94.48,2.65,2.65,0,0,1-1.86-.57,3.14,3.14,0,0,1-.88-1.41A5.93,5.93,0,0,1,53,71.56Zm7.86-17.14a25.5,25.5,0,0,0,5.17-2.83c1.68-1.17,3.28-2.26,4.82-3.26a3.91,3.91,0,0,1,.66-.36,3.59,3.59,0,0,0,.75-.44c.23-.18.53-.38.88-.62v-.7L65,21.3,64.68,21A15,15,0,0,0,64,24q-.4,2.48-.88,6.41t-1.06,9q-.59,5.13-1.2,11Z" transform="translate(-17.8 -4.64)"/><path class="cls-1" d="M111.5,36.58c-.06-.47-.13-1.07-.22-1.81s-.17-1.44-.26-2.12-.19-1.48-.31-2.42H110l-10.07,3a1.58,1.58,0,0,1-1.46.7H96.93a3.86,3.86,0,0,1-2.52-1.1,3.18,3.18,0,0,1-1.28-2.43,3.24,3.24,0,0,1,.66-1.9,3.44,3.44,0,0,1,1.64-1.28l14.22-4.5a6.14,6.14,0,0,1,1-2,2.36,2.36,0,0,1,2-1,3.42,3.42,0,0,1,2.08.62,6.68,6.68,0,0,0,1.9,1,22,22,0,0,0,2.65-.53l3.93-.92,3.93-.93,2.56-.62a5.79,5.79,0,0,0,1.59-.44,3.88,3.88,0,0,1,1.68-.27,6.35,6.35,0,0,1,3.09.89,2.85,2.85,0,0,1,1.59,2.65,2.77,2.77,0,0,1-.8,2,3.79,3.79,0,0,1-1.94,1.11l-16.78,4.24v.79a30.1,30.1,0,0,0,.48,5.39,21,21,0,0,1,.31,5.3l3,27.3v1.94c0,.71,0,1.43-.05,2.16a7.06,7.06,0,0,1-.35,2,3.23,3.23,0,0,1-1,1.46,3.33,3.33,0,0,1-2.12.57,3.86,3.86,0,0,1-2.25-.88,2.86,2.86,0,0,1-1.28-2.12L111.5,37.29Z" transform="translate(-17.8 -4.64)"/><path class="cls-1" d="M130.41,61.85q1.07-8.84,1.68-13.61c.41-3.18.71-5.53.88-7.06q.36-2.66.36-3.09.79-2.75,1.68-5.92a28.31,28.31,0,0,1,2.34-5.92,14.66,14.66,0,0,1,3.75-4.59A9.1,9.1,0,0,1,147,19.8a17.73,17.73,0,0,1,2.87.22,10.08,10.08,0,0,1,2.43.75,17,17,0,0,1,2.25,1.28,26.9,26.9,0,0,1,2.34,1.82,12.28,12.28,0,0,1,1,1,2.36,2.36,0,0,1,.13,1.06,3.65,3.65,0,0,1-.79,2.21,2.72,2.72,0,0,1-2.3,1.06,3.39,3.39,0,0,1-2-.58,12.48,12.48,0,0,1-1.55-1.32,11,11,0,0,0-1.59-1.33,3.77,3.77,0,0,0-2.16-.57,4.18,4.18,0,0,0-2.48.75,7,7,0,0,0-1.81,1.9,9.31,9.31,0,0,0-1.15,2.56,21.52,21.52,0,0,0-.57,2.65l-4.15,28.26c0,.12,0,.4,0,.84s0,.79,0,1V64.9a9.74,9.74,0,0,0,.18,1.85,4,4,0,0,0,.62,1.59,1.6,1.6,0,0,0,2.29.31,32.45,32.45,0,0,0,7.29-6.58,91.5,91.5,0,0,0,5.79-8c.05-.11.22-.39.48-.83s.53-.92.8-1.42.51-1,.75-1.5.41-.87.53-1.1a11.17,11.17,0,0,0,.79-2.39,17.81,17.81,0,0,1,.66-2.3,4.12,4.12,0,0,1,1.2-1.72,3.82,3.82,0,0,1,2.47-.66,3.51,3.51,0,0,1,2.39,1.06,3.28,3.28,0,0,1,1.14,2.47v.18a54.38,54.38,0,0,1-5.69,11.75q-3.5,5.39-7.73,10.69a21.83,21.83,0,0,1-6.1,5.12,15.3,15.3,0,0,1-7.68,1.94h-.44a9,9,0,0,1-5.35-4.46A16.38,16.38,0,0,1,130.41,64Z" transform="translate(-17.8 -4.64)"/><path class="cls-1" d="M174.5,52.66h-.27c0,2.42.05,4.79.13,7.11s.14,4.73.14,7.2c0,.71,0,1.4-.05,2.08a7.08,7.08,0,0,1-.31,1.85,2.54,2.54,0,0,1-.92,1.33,3.42,3.42,0,0,1-2,.48,3.49,3.49,0,0,1-3.45-2.56q-.43-4.16-.53-8.17c-.06-2.68-.23-5.43-.53-8.26a5.27,5.27,0,0,0-1-2.38,3.81,3.81,0,0,1-.84-2.21,1.75,1.75,0,0,1,.57-1.33,1.94,1.94,0,0,0,.58-1.5q0-6.88-.4-13.65t-.4-13.55V17.59a2.52,2.52,0,0,1,1.24-1.06,6.72,6.72,0,0,1,1.68-.17c1.7,0,2.79.51,3.26,1.54a10,10,0,0,1,.8,3.76L173,45.15c.06.18.17.46.31.84s.37.58.67.58a16.34,16.34,0,0,0,2.29-.31c1.12-.21,2.3-.44,3.54-.71a34.29,34.29,0,0,0,3.35-.88,3.54,3.54,0,0,0,1.77-.93c0-.41,0-1.15,0-2.21s0-1.79,0-2.21q0-3.7-.09-7.33c-.06-2.41-.18-4.86-.35-7.33,0-.41-.09-1.4-.27-3s-.35-3.25-.53-5.08-.34-3.52-.48-5.08-.23-2.54-.23-3C183,8.53,183,8.33,183,8V7.35a1.81,1.81,0,0,1,.84-1.68,3.33,3.33,0,0,1,1.81-.53,3.7,3.7,0,0,1,3.13,1.32,8.46,8.46,0,0,1,1.46,3.27c.06.65.15,1.74.26,3.27s.27,3.18.45,4.95l.48,5c.15,1.56.25,2.63.31,3.22v1.42c0,.29,0,.86.13,1.72s.16,1.43.22,1.72V67.24a13.91,13.91,0,0,1,.71,4.77,5.27,5.27,0,0,1-.57,2.25,2,2,0,0,1-2,1.19,4.14,4.14,0,0,1-2.25-.62,6.37,6.37,0,0,1-1.77-1.59A8,8,0,0,1,185,71.08a6.82,6.82,0,0,1-.44-2.43V50.45Z" transform="translate(-17.8 -4.64)"/></svg>